<?xml version="1.0" standalone="no"?>
<!DOCTYPE svg PUBLIC "-//W3C//DTD SVG 20010904//EN"
 "http://www.w3.org/TR/2001/REC-SVG-20010904/DTD/svg10.dtd">
<svg version="1.0" xmlns="http://www.w3.org/2000/svg"
 width="604.000000pt" height="514.000000pt" viewBox="0 0 604.000000 514.000000"
 preserveAspectRatio="xMidYMid meet">

<g transform="translate(0.000000,514.000000) scale(0.100000,-0.100000)"
fill="#000000" stroke="none">
<path d="M3795 4793 c-16 -2 -277 -28 -580 -58 l-550 -53 240 -1 240 -1 104
-299 c59 -167 109 -298 115 -296 6 2 160 29 341 60 182 31 337 59 346 63 13 6
0 50 -89 300 -81 225 -109 292 -121 290 -9 0 -29 -3 -46 -5z"/>
<path d="M1248 4057 l-888 -420 0 -251 0 -252 208 -116 207 -116 5 245 5 245
342 165 343 165 543 -312 544 -311 256 122 c141 68 255 124 254 125 -1 1 -139
80 -307 177 -665 381 -769 442 -762 448 4 3 137 68 295 144 158 76 290 142
292 145 4 6 -406 205 -440 215 -5 2 -409 -186 -897 -418z"/>
<path d="M4753 4252 c-172 -31 -313 -59 -313 -62 0 -3 77 -75 170 -159 94 -85
170 -160 170 -165 0 -6 -52 -141 -115 -300 -64 -159 -114 -290 -112 -293 5 -4
621 157 634 166 13 9 226 557 222 569 -6 16 -323 302 -334 301 -5 -1 -151 -26
-322 -57z"/>
<path d="M3540 3103 c-283 -135 -521 -249 -527 -255 -18 -14 -19 -1898 -2
-1898 7 0 247 113 535 252 l524 252 0 238 c0 132 -4 238 -9 238 -5 0 -123 -54
-262 -121 -140 -67 -282 -134 -316 -150 l-63 -28 0 108 0 108 321 149 321 149
-4 226 c-2 125 -6 231 -10 235 -4 4 -133 -51 -285 -121 -153 -70 -293 -134
-310 -141 l-33 -14 0 107 0 108 316 150 c174 82 318 154 320 160 3 6 3 119 2
251 l-3 241 -515 -244z"/>
<path d="M990 2673 l0 -588 103 -58 c56 -32 257 -147 447 -256 l345 -199 3
-106 3 -106 -437 251 c-240 138 -443 253 -450 256 -12 4 -14 -38 -14 -240 l0
-244 658 -373 c361 -205 662 -379 668 -386 9 -11 56 7 250 100 l239 113 3 607
c1 334 -1 606 -5 604 -5 -2 -113 -56 -240 -121 -128 -64 -237 -117 -243 -117
-12 0 -848 477 -868 495 -9 8 -12 40 -10 112 l3 101 435 -249 c239 -137 436
-253 438 -258 2 -5 65 20 140 56 75 36 188 89 250 119 l112 53 0 259 c0 142
-2 261 -5 264 -3 2 -109 -46 -236 -109 -127 -62 -241 -115 -252 -118 -16 -4
-197 92 -652 346 -346 193 -642 357 -657 365 l-28 15 0 -588z m1800 -181 l0
-238 -207 -99 c-115 -54 -216 -102 -225 -107 -17 -8 -18 6 -18 227 l0 236 223
108 c122 60 223 110 225 110 1 1 2 -106 2 -237z m-10 -1061 l0 -578 -212 -102
c-117 -55 -216 -101 -220 -101 -5 0 -8 256 -8 570 l0 570 218 109 c119 61 218
110 220 110 1 1 2 -259 2 -578z"/>
<path d="M5042 2922 c-167 -53 -300 -98 -295 -99 4 -2 141 -54 303 -116 l295
-112 3 -218 c1 -119 4 -217 5 -217 2 0 131 51 287 113 l285 112 0 215 0 214
-270 103 c-148 57 -279 103 -290 102 -11 -1 -157 -44 -323 -97z"/>
<path d="M360 2329 l0 -580 205 -100 c114 -54 208 -99 210 -99 3 0 5 255 5
568 l0 567 -203 113 c-112 61 -206 112 -210 112 -4 0 -7 -261 -7 -581z"/>
<path d="M4835 1658 c-170 -72 -311 -132 -313 -134 -2 -1 62 -128 142 -281 80
-154 146 -284 146 -291 0 -6 -61 -81 -135 -167 -75 -85 -133 -155 -130 -155 4
0 138 71 298 157 l292 157 157 155 157 156 -141 268 c-78 147 -147 267 -152
267 -6 0 -150 -59 -321 -132z"/>
<path d="M4068 1213 c4 -43 7 -97 7 -120 0 -46 2 -48 25 -33 12 7 12 10 1 10
-9 0 -12 11 -9 40 2 22 0 40 -4 40 -5 0 -8 21 -8 47 l0 48 33 -33 c31 -32 31
-34 13 -48 -23 -16 -14 -19 14 -4 15 8 23 4 42 -19 20 -24 28 -26 49 -18 20 8
21 10 7 16 -9 3 -53 39 -97 79 l-81 73 8 -78z"/>
<path d="M936 1208 c-21 -30 -20 -37 10 -93 31 -60 29 -89 -8 -93 -36 -4 -72
31 -65 64 6 33 1 30 -19 -8 -9 -18 -13 -30 -9 -26 4 4 23 -6 42 -22 38 -34 59
-37 91 -14 29 20 28 52 -5 119 -25 51 -26 56 -10 72 24 24 65 3 74 -37 5 -27
7 -29 18 -13 11 15 8 21 -23 45 -42 34 -75 36 -96 6z"/>
<path d="M3923 1212 c-8 -5 3 -36 33 -96 25 -49 43 -95 40 -102 -4 -10 0 -11
20 -2 13 6 20 14 15 18 -6 3 -30 47 -54 97 -27 59 -47 89 -54 85z"/>
<path d="M3788 1149 c-32 -16 -58 -36 -58 -44 0 -12 5 -10 20 5 11 11 24 20
30 20 11 0 90 -152 90 -175 0 -12 4 -13 24 -3 24 10 24 11 7 27 -10 9 -34 51
-54 93 -37 81 -36 88 14 88 11 0 17 5 14 10 -9 15 -25 12 -87 -21z"/>
<path d="M1120 1130 c0 -9 -53 -98 -91 -152 -19 -27 -19 -27 1 -38 14 -8 20
-8 20 0 0 18 94 169 106 170 32 1 47 -67 19 -90 -8 -7 -27 -10 -42 -7 -26 5
-26 4 -8 -9 43 -32 95 -9 95 41 0 29 -7 40 -42 65 -43 31 -58 37 -58 20z"/>
<path d="M3680 1095 c0 -3 16 -37 35 -75 19 -39 32 -70 29 -70 -4 0 -45 21
-91 46 -61 33 -89 43 -106 38 l-22 -7 23 -8 c15 -6 34 -34 57 -85 19 -42 35
-83 35 -90 0 -8 6 -11 15 -8 12 5 13 10 4 20 -11 13 -69 131 -69 140 0 3 43
-18 95 -47 52 -28 95 -48 95 -45 0 4 -18 42 -40 86 -22 44 -40 86 -40 95 0 8
-4 15 -10 15 -5 0 -10 -2 -10 -5z"/>
<path d="M1280 1027 c0 -7 -24 -50 -54 -95 -45 -69 -51 -84 -38 -91 12 -7 25
8 64 73 27 44 56 86 64 93 14 10 13 13 -5 22 -26 14 -31 14 -31 -2z"/>
<path d="M3445 983 c-27 -14 -51 -26 -53 -28 -1 -1 18 -43 43 -94 25 -51 43
-97 39 -102 -3 -5 23 5 59 22 53 27 63 35 59 52 -5 20 -5 20 -13 -1 -7 -18
-66 -59 -74 -50 -1 2 -12 22 -24 45 -21 42 -21 42 -2 53 11 5 29 10 40 10 14
0 19 5 15 14 -5 12 -12 11 -40 -6 -19 -11 -36 -19 -38 -17 -13 15 -36 71 -32
78 3 5 19 14 36 21 25 10 33 10 47 -1 15 -13 15 -12 4 9 -6 12 -13 22 -14 22
-1 -1 -24 -13 -52 -27z"/>
<path d="M1374 982 c7 -11 -61 -130 -95 -167 -18 -21 -18 -21 14 -39 17 -11
26 -13 20 -6 -10 11 -8 21 9 49 12 20 25 38 29 41 3 3 9 14 13 25 3 11 15 31
25 44 15 20 21 22 39 12 15 -8 22 -21 22 -40 0 -36 -22 -55 -56 -48 -26 5 -26
4 -20 -41 3 -24 6 -55 6 -67 0 -14 11 -30 28 -41 23 -15 25 -15 14 -1 -8 9
-16 43 -19 76 -5 56 -5 60 15 55 35 -10 62 13 62 51 0 29 -6 38 -42 63 -62 41
-72 47 -64 34z"/>
<path d="M3245 888 c-29 -16 -29 -16 -16 -32 18 -22 81 -155 81 -172 0 -11 15
-7 60 16 47 24 60 35 59 53 0 22 0 22 -11 1 -5 -12 -25 -28 -44 -37 l-34 -17
-41 82 c-22 44 -38 89 -36 99 3 11 4 19 4 19 -1 0 -11 -6 -22 -12z"/>
<path d="M1570 847 c0 -7 -24 -50 -54 -95 -45 -69 -51 -84 -38 -91 12 -7 25 8
64 73 27 44 56 86 64 93 14 10 13 13 -5 22 -26 14 -31 14 -31 -2z"/>
<path d="M3085 808 c-11 -6 -21 -12 -23 -13 -1 -1 18 -43 43 -94 25 -51 43
-97 39 -102 -3 -5 23 5 59 22 58 29 63 34 58 58 -5 25 -6 25 -9 3 -4 -24 -59
-65 -74 -56 -5 3 -27 42 -49 86 -32 63 -38 83 -28 94 14 17 11 17 -16 2z"/>
<path d="M1647 803 c-13 -12 -7 -21 11 -17 9 3 26 -1 36 -9 18 -14 17 -17 -29
-91 -27 -43 -56 -81 -66 -84 -16 -6 -14 -9 11 -24 25 -14 30 -15 30 -3 0 23
91 165 106 165 7 0 21 -11 32 -25 15 -19 21 -22 25 -11 4 10 -18 29 -67 60
-79 49 -79 49 -89 39z"/>
<path d="M2945 743 c-62 -32 -60 -30 -46 -47 18 -22 81 -155 81 -172 0 -11 15
-7 60 16 47 24 60 35 59 53 l0 22 -9 -22 c-8 -18 -56 -53 -74 -53 -3 0 -15 19
-27 42 -21 40 -21 42 -3 55 11 8 29 12 41 10 19 -4 20 -2 10 21 -8 18 -13 21
-15 10 -2 -12 -41 -38 -57 -38 -3 0 -14 18 -25 40 l-20 39 31 17 c17 8 39 14
49 11 13 -3 17 0 13 9 -7 18 -9 18 -68 -13z"/>
<path d="M1840 687 c0 -8 -18 -46 -40 -83 -22 -38 -40 -77 -40 -87 0 -32 54
-77 94 -77 38 0 56 14 93 74 14 23 34 50 44 61 18 20 18 21 -1 33 -16 10 -18
9 -14 -3 3 -7 -15 -46 -40 -84 -39 -60 -50 -71 -74 -71 -39 0 -72 26 -72 57 0
32 66 142 91 152 17 6 16 8 -11 24 -25 15 -30 16 -30 4z"/>
<path d="M2840 682 c0 -7 -12 -12 -27 -12 -104 -2 -111 -173 -9 -215 41 -17
90 -5 107 27 10 18 8 18 -20 -3 -39 -29 -75 -19 -108 30 -51 75 -35 151 30
151 18 0 39 -6 46 -12 11 -11 11 -9 1 12 -16 32 -20 36 -20 22z"/>
<path d="M2648 586 c-25 -11 -26 -13 -10 -23 15 -9 20 -6 29 13 6 13 10 24 10
23 -1 0 -14 -6 -29 -13z"/>
<path d="M2026 528 c-21 -30 -20 -37 10 -93 31 -60 29 -89 -8 -93 -36 -4 -72
31 -65 64 6 33 1 30 -19 -8 -9 -18 -13 -30 -9 -26 4 4 23 -6 42 -22 38 -34 59
-37 91 -14 29 20 28 52 -5 119 -25 51 -26 56 -10 72 24 24 65 3 74 -37 5 -27
7 -29 18 -13 11 15 8 21 -23 45 -42 34 -75 36 -96 6z"/>
<path d="M2530 530 c-31 -17 -33 -19 -11 -20 36 0 111 -51 111 -75 0 -16 2
-17 9 -6 8 12 16 10 45 -13 20 -15 34 -32 31 -37 -4 -5 5 -4 19 3 14 6 26 14
26 17 0 3 -25 21 -55 39 -50 30 -55 37 -56 70 -2 30 -3 32 -6 10 -2 -16 -10
-28 -16 -28 -15 1 -53 31 -58 47 -3 8 -15 6 -39 -7z"/>
<path d="M2415 473 c-27 -14 -51 -26 -53 -28 -1 -1 18 -43 43 -94 25 -51 43
-97 39 -102 -3 -5 23 5 59 22 53 27 63 35 59 52 -5 20 -5 20 -13 -1 -7 -18
-66 -59 -74 -50 -1 2 -12 22 -24 45 -21 42 -21 42 -2 53 11 5 29 10 40 10 14
0 19 5 15 14 -5 12 -12 11 -40 -6 -19 -11 -36 -19 -38 -17 -13 15 -36 71 -32
78 3 5 19 14 36 21 25 10 33 10 47 -1 15 -13 15 -12 4 9 -6 12 -13 22 -14 22
-1 -1 -24 -13 -52 -27z"/>
<path d="M2620 382 c0 -15 -7 -38 -16 -50 -15 -21 -14 -22 8 -12 20 10 23 17
20 51 -5 45 -12 52 -12 11z"/>
</g>
</svg>
